<svg xmlns="http://www.w3.org/2000/svg" width="691" height="152" viewBox="0 0 690.9657259 152" role="img" aria-label="Codiluce — Daybreak 03 Symbol first — Bring your code to light"><title>Codiluce — Daybreak 03 Symbol first — Bring your code to light</title><g transform="translate(12 12)"><g transform="translate(0 13.3462207)"><g color="#f5f5f3" transform="translate(-12.0754717 -48.3650886) scale(2.0125786)"><path d="M 19.6774 43.5547 A 31 31 0 0 1 80.3226 43.5547" fill="none" stroke="currentColor" stroke-width="3.2"/><path d="M 6 50 H 94" fill="none" stroke="currentColor" stroke-width="3.2"/><path d="M 80.5082 55.5 A 31 31 0 0 1 19.4918 55.5 Z" fill="currentColor"/></g><g fill="#f5f5f3" transform="translate(215.0905335 60.028) scale(0.086 -0.086)"><path transform="translate(0 0)" d="M378.2431640625 -12Q273.2431640625 -12 199.10791015625 25.36474609375Q124.97265625 62.7294921875 85.83740234375 141.290283203125Q46.7021484375 219.85107421875 46.7021484375 343Q46.7021484375 523.39208984375 134.33740234375 610.696044921875Q221.97265625 698 378.486328125 698Q464.2158203125 698 532.59423828125 669.12158203125Q600.97265625 640.2431640625 641.047119140625 582.047119140625Q681.12158203125 523.85107421875 681.12158203125 434.458984375H557.7265625Q557.7265625 487.1337890625 535.25390625 522.910400390625Q512.78125 558.68701171875 472.653564453125 577.112548828125Q432.52587890625 595.5380859375 380 595.5380859375Q310.90576171875 595.5380859375 264.08203125 568.612548828125Q217.25830078125 541.68701171875 194.29931640625 487.98486328125Q171.34033203125 434.28271484375 171.34033203125 353.2705078125V331.39208984375Q171.34033203125 250.109375 194.29931640625 196.650390625Q217.25830078125 143.19140625 263.642822265625 116.82666015625Q310.02734375 90.4619140625 380.12158203125 90.4619140625Q435.1611328125 90.4619140625 476.167236328125 108.4482421875Q517.17333984375 126.4345703125 539.706787109375 162.211181640625Q562.240234375 197.98779296875 562.240234375 250.66259765625H681.12158203125Q681.12158203125 161.02734375 641.2431640625 102.831298828125Q601.36474609375 44.63525390625 532.925537109375 16.317626953125Q464.486328125 -12 378.2431640625 -12Z"/><path transform="translate(743.9302326 0)" d="M391.7294921875 -12Q284.85107421875 -12 207.155029296875 26.682373046875Q129.458984375 65.36474609375 88.08056640625 144.36474609375Q46.7021484375 223.36474609375 46.7021484375 343Q46.7021484375 463.63525390625 88.08056640625 542.13525390625Q129.458984375 620.63525390625 207.155029296875 659.317626953125Q284.85107421875 698 391.7294921875 698Q499.60791015625 698 576.86474609375 659.317626953125Q654.12158203125 620.63525390625 695.5 542.13525390625Q736.87841796875 463.63525390625 736.87841796875 343Q736.87841796875 223.36474609375 695.5 144.36474609375Q654.12158203125 65.36474609375 576.86474609375 26.682373046875Q499.60791015625 -12 391.7294921875 -12ZM391.7294921875 90.4619140625Q444.9453125 90.4619140625 485.965087890625 105.58349609375Q526.98486328125 120.705078125 555.261474609375 150.9345703125Q583.5380859375 181.1640625 598.328369140625 226.24462890625Q613.11865234375 271.3251953125 613.11865234375 331.2431640625V353Q613.11865234375 413.79638671875 598.328369140625 459.316162109375Q583.5380859375 504.8359375 555.261474609375 535.0654296875Q526.98486328125 565.294921875 485.965087890625 580.41650390625Q444.9453125 595.5380859375 391.7294921875 595.5380859375Q338.513671875 595.5380859375 297.5546875 580.41650390625Q256.595703125 565.294921875 228.319091796875 535.0654296875Q200.04248046875 504.8359375 185.69140625 459.316162109375Q171.34033203125 413.79638671875 171.34033203125 353V331.2431640625Q171.34033203125 271.3251953125 185.69140625 226.24462890625Q200.04248046875 181.1640625 228.319091796875 150.9345703125Q256.595703125 120.705078125 297.5546875 105.58349609375Q338.513671875 90.4619140625 391.7294921875 90.4619140625Z"/><path transform="translate(1548.8604651 0)" d="M78.6748046875 0V686H348.68994140625Q453.66259765625 686 528.14892578125 649.2431640625Q602.63525390625 612.486328125 642.7568359375 536.986328125Q682.87841796875 461.486328125 682.87841796875 343Q682.87841796875 225.63525390625 642.7568359375 149.63525390625Q602.63525390625 73.63525390625 528.14892578125 36.817626953125Q453.66259765625 0 348.68994140625 0ZM199.4345703125 103.34033203125H348.20361328125Q398.513671875 103.34033203125 437.641357421875 117.401123046875Q476.76904296875 131.4619140625 503.531982421875 159.630615234375Q530.294921875 187.79931640625 544.267578125 230.8798828125Q558.240234375 273.96044921875 558.240234375 331.87841796875V352.7568359375Q558.240234375 411.91796875 544.267578125 455.059326171875Q530.294921875 498.20068359375 503.5927734375 526.369384765625Q476.890625 554.5380859375 437.762939453125 568.598876953125Q398.63525390625 582.65966796875 348.20361328125 582.65966796875H199.4345703125Z"/><path transform="translate(2299.7906977 0)" d="M78.6748046875 0V686H199.4345703125V0Z"/><path transform="translate(2598.7209302 0)" d="M78.6748046875 0V686H199.4345703125V105.09716796875H542.705078125V0Z"/><path transform="translate(3145.6511628 0)" d="M361.7294921875 -12Q272.458984375 -12 208.06689453125 16.7568359375Q143.6748046875 45.513671875 109.41796875 105.2568359375Q75.1611328125 165 75.1611328125 255.458984375V686H196.04248046875V255.8115234375Q196.04248046875 174.01513671875 239.3662109375 132.29931640625Q282.68994140625 90.58349609375 361.7294921875 90.58349609375Q441.1337890625 90.58349609375 485.639892578125 132.29931640625Q530.14599609375 174.01513671875 530.14599609375 255.8115234375V686H650.7841796875V255.458984375Q650.7841796875 165 616.02734375 105.2568359375Q581.2705078125 45.513671875 516.696044921875 16.7568359375Q452.12158203125 -12 361.7294921875 -12Z"/><path transform="translate(3892.5813953 0)" d="M378.2431640625 -12Q273.2431640625 -12 199.10791015625 25.36474609375Q124.97265625 62.7294921875 85.83740234375 141.290283203125Q46.7021484375 219.85107421875 46.7021484375 343Q46.7021484375 523.39208984375 134.33740234375 610.696044921875Q221.97265625 698 378.486328125 698Q464.2158203125 698 532.59423828125 669.12158203125Q600.97265625 640.2431640625 641.047119140625 582.047119140625Q681.12158203125 523.85107421875 681.12158203125 434.458984375H557.7265625Q557.7265625 487.1337890625 535.25390625 522.910400390625Q512.78125 558.68701171875 472.653564453125 577.112548828125Q432.52587890625 595.5380859375 380 595.5380859375Q310.90576171875 595.5380859375 264.08203125 568.612548828125Q217.25830078125 541.68701171875 194.29931640625 487.98486328125Q171.34033203125 434.28271484375 171.34033203125 353.2705078125V331.39208984375Q171.34033203125 250.109375 194.29931640625 196.650390625Q217.25830078125 143.19140625 263.642822265625 116.82666015625Q310.02734375 90.4619140625 380.12158203125 90.4619140625Q435.1611328125 90.4619140625 476.167236328125 108.4482421875Q517.17333984375 126.4345703125 539.706787109375 162.211181640625Q562.240234375 197.98779296875 562.240234375 250.66259765625H681.12158203125Q681.12158203125 161.02734375 641.2431640625 102.831298828125Q601.36474609375 44.63525390625 532.925537109375 16.317626953125Q464.486328125 -12 378.2431640625 -12Z"/><path transform="translate(4636.5116279 0)" d="M78.6748046875 0V686H611.85107421875V582.65966796875H199.4345703125V402.3525390625H567.85107421875V299.01220703125H199.4345703125V103.34033203125H617.85107421875V0Z"/></g><g fill="#929297" transform="translate(217.0854339 96.3436914) scale(0.0112305 -0.0112305)"><path transform="translate(0 0)" d="M180 0V1490H708Q864 1490 965.5 1436.5Q1067 1383 1116.5 1293.5Q1166 1204 1166 1095Q1166 999 1132.0 936.5Q1098 874 1042.5 837.0Q987 800 922 782V768Q992 764 1061.5 720.0Q1131 676 1177.5 595.0Q1224 514 1224 397Q1224 285 1172.5 195.0Q1121 105 1011.0 52.5Q901 0 725 0ZM370 168H720Q894 168 967.5 235.0Q1041 302 1041 399Q1041 474 1003.0 537.0Q965 600 895.5 638.0Q826 676 730 676H370ZM370 836H698Q778 836 843.0 867.5Q908 899 946.0 956.5Q984 1014 984 1091Q984 1188 916.5 1255.0Q849 1322 704 1322H370Z"/><path transform="translate(1343.5617391 0)" d="M158 0V1118H332V946H344Q375 1031 454.5 1082.5Q534 1134 634 1134Q654 1134 681.5 1133.0Q709 1132 725 1131V950Q717 952 685.0 956.0Q653 960 617 960Q537 960 473.5 926.5Q410 893 374.0 834.5Q338 776 338 700V0Z"/><path transform="translate(2138.1234783 0)" d="M158 0V1118H338V0ZM249 1301Q198 1301 161.0 1336.0Q124 1371 124 1420Q124 1470 161.0 1504.5Q198 1539 249 1539Q301 1539 338.0 1504.5Q375 1470 375 1420Q375 1371 338.0 1336.0Q301 1301 249 1301Z"/><path transform="translate(2637.6852174 0)" d="M338 670V0H158V1118H331L332 847H307Q358 1002 452.5 1067.0Q547 1132 674 1132Q787 1132 872.0 1085.5Q957 1039 1004.5 945.5Q1052 852 1052 710V0H872V695Q872 824 804.5 897.0Q737 970 620 970Q540 970 476.0 935.0Q412 900 375.0 833.0Q338 766 338 670Z"/><path transform="translate(3851.2469565 0)" d="M611 -442Q487 -442 396.5 -410.5Q306 -379 246.0 -327.0Q186 -275 151 -214L297 -120Q321 -152 356.5 -191.0Q392 -230 452.5 -257.5Q513 -285 611 -285Q745 -285 831.5 -221.0Q918 -157 918 -19V205H901Q882 173 847.5 129.0Q813 85 748.5 51.5Q684 18 576 18Q442 18 335.0 81.5Q228 145 166.0 267.0Q104 389 104 564Q104 737 165.0 864.5Q226 992 333.5 1062.0Q441 1132 580 1132Q688 1132 752.5 1096.5Q817 1061 852.0 1015.0Q887 969 906 939H923V1118H1098V-29Q1098 -173 1033.0 -264.5Q968 -356 857.5 -399.0Q747 -442 611 -442ZM606 178Q708 178 778.0 224.5Q848 271 884.0 358.5Q920 446 920 568Q920 687 884.5 777.5Q849 868 779.0 919.5Q709 971 606 971Q500 971 429.0 916.5Q358 862 322.5 771.0Q287 680 287 568Q287 453 323.0 365.0Q359 277 430.0 227.5Q501 178 606 178Z"/><path transform="translate(5690.3704348 0)" d="M140 -405 186 -249 205 -254Q260 -268 305.0 -261.5Q350 -255 386.0 -217.0Q422 -179 449 -99L481 -6L54 1118H251L489 455Q527 351 553.0 249.0Q579 147 608 51H542Q571 147 597.5 249.5Q624 352 661 455L901 1118H1097L606 -167Q572 -256 524.5 -313.5Q477 -371 414.0 -398.5Q351 -426 272 -426Q224 -426 189.0 -419.0Q154 -412 140 -405Z"/><path transform="translate(6804.9321739 0)" d="M613 -24Q461 -24 346.5 48.0Q232 120 168.0 250.0Q104 380 104 552Q104 727 168.0 857.5Q232 988 346.5 1060.0Q461 1132 613 1132Q766 1132 881.0 1060.0Q996 988 1060.0 857.5Q1124 727 1124 552Q1124 380 1060.0 250.0Q996 120 881.0 48.0Q766 -24 613 -24ZM613 137Q726 137 799.0 195.0Q872 253 907.0 347.5Q942 442 942 552Q942 663 907.0 758.5Q872 854 799.0 912.5Q726 971 613 971Q501 971 429.0 912.5Q357 854 322.0 759.0Q287 664 287 552Q287 442 322.0 347.5Q357 253 429.0 195.0Q501 137 613 137Z"/><path transform="translate(8036.493913 0)" d="M537 -14Q424 -14 338.5 32.5Q253 79 205.5 173.0Q158 267 158 408V1118H338V423Q338 294 406.0 221.0Q474 148 591 148Q671 148 734.5 183.0Q798 218 835.0 285.5Q872 353 872 448V1118H1053V0H879V271H903Q851 114 755.5 50.0Q660 -14 537 -14Z"/><path transform="translate(9251.0556522 0)" d="M158 0V1118H332V946H344Q375 1031 454.5 1082.5Q534 1134 634 1134Q654 1134 681.5 1133.0Q709 1132 725 1131V950Q717 952 685.0 956.0Q653 960 617 960Q537 960 473.5 926.5Q410 893 374.0 834.5Q338 776 338 700V0Z"/><path transform="translate(10605.1791304 0)" d="M613 -24Q461 -24 346.5 48.0Q232 120 168.0 250.0Q104 380 104 552Q104 727 168.0 857.5Q232 988 346.5 1060.0Q461 1132 613 1132Q694 1132 766.0 1111.0Q838 1090 897.5 1050.5Q957 1011 1000.0 953.5Q1043 896 1066 823L893 774Q881 817 856.0 853.0Q831 889 795.5 915.5Q760 942 714.0 956.5Q668 971 613 971Q501 971 429.0 912.5Q357 854 322.0 759.0Q287 664 287 552Q287 442 322.0 347.5Q357 253 429.0 195.0Q501 137 613 137Q669 137 716.0 152.0Q763 167 799.5 194.5Q836 222 861.0 260.0Q886 298 898 343L1070 294Q1048 219 1004.5 160.5Q961 102 901.0 60.5Q841 19 768.0 -2.5Q695 -24 613 -24Z"/><path transform="translate(11778.7408696 0)" d="M613 -24Q461 -24 346.5 48.0Q232 120 168.0 250.0Q104 380 104 552Q104 727 168.0 857.5Q232 988 346.5 1060.0Q461 1132 613 1132Q766 1132 881.0 1060.0Q996 988 1060.0 857.5Q1124 727 1124 552Q1124 380 1060.0 250.0Q996 120 881.0 48.0Q766 -24 613 -24ZM613 137Q726 137 799.0 195.0Q872 253 907.0 347.5Q942 442 942 552Q942 663 907.0 758.5Q872 854 799.0 912.5Q726 971 613 971Q501 971 429.0 912.5Q357 854 322.0 759.0Q287 664 287 552Q287 442 322.0 347.5Q357 253 429.0 195.0Q501 137 613 137Z"/><path transform="translate(13010.3026087 0)" d="M577 -24Q438 -24 331.0 47.0Q224 118 164.0 248.0Q104 378 104 556Q104 733 164.5 862.5Q225 992 332.0 1062.0Q439 1132 578 1132Q687 1132 751.0 1096.0Q815 1060 849.5 1014.5Q884 969 902 939H916V1490H1096V0H922V173H902Q884 142 848.5 95.5Q813 49 748.5 12.5Q684 -24 577 -24ZM604 137Q706 137 776.0 190.5Q846 244 882.0 339.0Q918 434 918 558Q918 682 882.5 774.5Q847 867 777.0 919.0Q707 971 604 971Q498 971 427.5 916.0Q357 861 322.0 767.5Q287 674 287 558Q287 441 322.5 345.5Q358 250 429.0 193.5Q500 137 604 137Z"/><path transform="translate(14267.8643478 0)" d="M628 -24Q466 -24 348.5 48.0Q231 120 167.5 249.0Q104 378 104 550Q104 722 166.0 853.0Q228 984 341.5 1058.0Q455 1132 607 1132Q696 1132 782.5 1102.5Q869 1073 939.5 1007.5Q1010 942 1052.0 835.0Q1094 728 1094 573V498H226V650H997L913 594Q913 704 878.5 789.5Q844 875 776.0 923.5Q708 972 607 972Q506 972 434.0 922.5Q362 873 324.0 793.5Q286 714 286 623V522Q286 398 329.0 311.5Q372 225 449.5 180.5Q527 136 629 136Q695 136 749.0 155.0Q803 174 842.0 212.5Q881 251 902 308L1076 260Q1050 176 988.0 112.0Q926 48 834.5 12.0Q743 -24 628 -24Z"/><path transform="translate(16044.9878261 0)" d="M598 1118V964H20V1118ZM188 1384H368V290Q368 215 398.5 180.5Q429 146 500 146Q517 146 543.5 150.0Q570 154 592 158L629 6Q601 -4 565.5 -9.0Q530 -14 495 -14Q350 -14 269.0 62.5Q188 139 188 276Z"/><path transform="translate(16698.5495652 0)" d="M613 -24Q461 -24 346.5 48.0Q232 120 168.0 250.0Q104 380 104 552Q104 727 168.0 857.5Q232 988 346.5 1060.0Q461 1132 613 1132Q766 1132 881.0 1060.0Q996 988 1060.0 857.5Q1124 727 1124 552Q1124 380 1060.0 250.0Q996 120 881.0 48.0Q766 -24 613 -24ZM613 137Q726 137 799.0 195.0Q872 253 907.0 347.5Q942 442 942 552Q942 663 907.0 758.5Q872 854 799.0 912.5Q726 971 613 971Q501 971 429.0 912.5Q357 854 322.0 759.0Q287 664 287 552Q287 442 322.0 347.5Q357 253 429.0 195.0Q501 137 613 137Z"/><path transform="translate(18509.6730435 0)" d="M338 1490V0H158V1490Z"/><path transform="translate(19009.2347826 0)" d="M158 0V1118H338V0ZM249 1301Q198 1301 161.0 1336.0Q124 1371 124 1420Q124 1470 161.0 1504.5Q198 1539 249 1539Q301 1539 338.0 1504.5Q375 1470 375 1420Q375 1371 338.0 1336.0Q301 1301 249 1301Z"/><path transform="translate(19508.7965217 0)" d="M611 -442Q487 -442 396.5 -410.5Q306 -379 246.0 -327.0Q186 -275 151 -214L297 -120Q321 -152 356.5 -191.0Q392 -230 452.5 -257.5Q513 -285 611 -285Q745 -285 831.5 -221.0Q918 -157 918 -19V205H901Q882 173 847.5 129.0Q813 85 748.5 51.5Q684 18 576 18Q442 18 335.0 81.5Q228 145 166.0 267.0Q104 389 104 564Q104 737 165.0 864.5Q226 992 333.5 1062.0Q441 1132 580 1132Q688 1132 752.5 1096.5Q817 1061 852.0 1015.0Q887 969 906 939H923V1118H1098V-29Q1098 -173 1033.0 -264.5Q968 -356 857.5 -399.0Q747 -442 611 -442ZM606 178Q708 178 778.0 224.5Q848 271 884.0 358.5Q920 446 920 568Q920 687 884.5 777.5Q849 868 779.0 919.5Q709 971 606 971Q500 971 429.0 916.5Q358 862 322.5 771.0Q287 680 287 568Q287 453 323.0 365.0Q359 277 430.0 227.5Q501 178 606 178Z"/><path transform="translate(20768.3582609 0)" d="M338 670V0H158V1490H338V847H307Q358 1002 452.5 1067.0Q547 1132 674 1132Q787 1132 872.5 1085.5Q958 1039 1005.5 945.5Q1053 852 1053 710V0H872V695Q872 824 804.5 897.0Q737 970 620 970Q540 970 476.0 935.0Q412 900 375.0 833.0Q338 766 338 670Z"/><path transform="translate(21982.92 0)" d="M598 1118V964H20V1118ZM188 1384H368V290Q368 215 398.5 180.5Q429 146 500 146Q517 146 543.5 150.0Q570 154 592 158L629 6Q601 -4 565.5 -9.0Q530 -14 495 -14Q350 -14 269.0 62.5Q188 139 188 276Z"/></g></g></g></svg>
